<svg fill-rule="evenodd" stroke-linejoin="round" stroke-miterlimit="2" viewBox="0 0 171 31" xmlns="http://www.w3.org/2000/svg"><clipPath id="a"><path d="M800 800.998H0v-800L800 1v800z"/></clipPath><clipPath id="b"><path d="M800 800.998H0v-800L800 1v800z"/></clipPath><clipPath id="c"><path d="M800 800.998H0v-800L800 1v800z"/></clipPath><clipPath id="d"><path d="M800 800.998H0v-800L800 1v800z"/></clipPath><g transform="translate(2.244 1.809) scale(.02316)"><circle cx="598.766" cy="599.166" fill="#fff" r="575.666"/><g clip-path="url(#a)" fill-rule="nonzero" transform="translate(-3529.12 -3178.64) scale(5.62664)"><path d="M733.357 579.663c117.966 145.83 0 184.844 0 184.844s-117.965-39.013 0-184.844z" fill="#8cc972"/><path d="M733.376 579.646V764.49s117.966-39.013 0-184.844z" fill="#2cb563"/></g><g clip-path="url(#b)" fill="#e5c614" fill-rule="nonzero" transform="scale(5.89565) rotate(5.808 4810.794 -2517.515)"><path d="M432.503 530.484c52.278 117.108-32.526 122.124-32.526 122.124s-71.073-46.533 32.526-122.124z"/><path d="M432.503 530.484l-32.526 122.124s84.804-5.016 32.526-122.124z"/></g><circle cx="598.766" cy="599.166" fill="#313131" r="575.666"/><g fill-rule="nonzero"><g clip-path="url(#c)" transform="translate(-3529.12 -3178.64) scale(5.62664)"><path d="M733.357 579.663c117.966 145.83 0 184.844 0 184.844s-117.965-39.013 0-184.844z" fill="#8cc972"/><path d="M733.376 579.646V764.49s117.966-39.013 0-184.844z" fill="#2cb563"/></g><g clip-path="url(#d)" fill="#e5c614" transform="scale(5.89565) rotate(5.808 4810.794 -2517.515)"><path d="M432.503 530.484c52.278 117.108-32.526 122.124-32.526 122.124s-71.073-46.533 32.526-122.124z"/><path d="M432.503 530.484l-32.526 122.124s84.804-5.016 32.526-122.124z"/></g><path d="M669.208 910.823l38.334-168.517a14.83 14.83 0 0 1 17.753-11.159c7.983 1.825 12.977 9.77 11.16 17.753L697.97 917.423a14.815 14.815 0 0 1-14.378 11.564 16.623 16.623 0 0 1-3.338 0c-7.977-1.825-12.97-9.776-11.14-17.76.03-.137.056-.268.093-.405zm89.856-18.015l63.174-62.943-62.95-62.943c-5.772-5.835-5.723-15.25.112-21.016 5.835-5.78 15.244-5.73 21.023.106l73.398 73.398c5.748 5.785 5.748 15.126 0 20.9l-73.398 73.398a14.857 14.857 0 0 1-10.455 4.37 14.81 14.81 0 0 1-10.53-4.371c-5.79-5.748-5.86-15.088-.15-20.9h-.224zM558.9 840.32c-5.748-5.785-5.748-15.126 0-20.9l73.398-73.398c5.492-6.078 14.864-6.557 20.942-1.065 6.084 5.486 6.557 14.858 1.07 20.942a17.88 17.88 0 0 1-1.027 1.034l-62.95 62.943 62.95 62.943c5.748 5.785 5.748 15.126 0 20.9a14.846 14.846 0 0 1-10.536 4.37 14.815 14.815 0 0 1-10.598-4.37z" fill="#ece5e1"/></g></g><path d="M45.415 13.09c-.9-1.154-2.02-1.75-3.36-1.75-.58 0-1.12.106-1.62.337a3.96 3.96 0 0 0-1.3.91c-.36.399-.64.86-.84 1.386-.22.525-.32 1.12-.32 1.722 0 .63.1 1.218.32 1.75.2.525.48.98.867 1.386.36.399.78.7 1.28.924a3.987 4.186 0 0 0 1.6.336c1.267 0 2.38-.56 3.38-1.68v4.872l-.4.14c-.6.23-1.16.399-1.68.504s-1.04.14-1.533.14c-1.04 0-2.04-.21-2.98-.63-.96-.4-1.8-.98-2.52-1.75a8.178 8.178 0 0 1-1.76-2.66c-.44-1.03-.667-2.142-.667-3.36s.22-2.331.667-3.36c.42-1.008 1-1.87 1.733-2.625a7.926 7.926 0 0 1 2.52-1.722 8.113 8.519 0 0 1 3.02-.61c.6 0 1.18.07 1.78.19.58.14 1.18.35 1.82.63v4.914zm6.12 2.626a4.273 4.487 0 0 0 .334 1.75c.213.532.533.98.92 1.386s.84.7 1.36.91c.5.23 1.04.336 1.62.336s1.12-.105 1.64-.336c.5-.21.96-.504 1.36-.91.38-.4.7-.861.92-1.386s.333-1.12.333-1.75a4.273 4.487 0 0 0-.333-1.75c-.214-.532-.534-.98-.92-1.386-.4-.4-.867-.7-1.36-.924a4.338 4.338 0 0 0-1.64-.315 4.347 4.564 0 0 0-1.62.315c-.52.23-.98.525-1.36.924s-.7.86-.92 1.386-.334 1.12-.334 1.75zm-4.1 0c0-1.176.2-2.268.62-3.29.42-1.008.98-1.89 1.72-2.646s1.62-1.344 2.64-1.785c1.02-.42 2.134-.63 3.36-.63s2.334.21 3.36.63a8.599 8.599 0 0 1 2.667 1.785 7.947 8.344 0 0 1 1.72 2.646c.42 1.029.62 2.12.62 3.29s-.2 2.268-.62 3.276c-.42 1.029-.98 1.91-1.72 2.66a8.053 8.053 0 0 1-2.667 1.764c-1.02.44-2.133.65-3.36.65s-2.333-.21-3.36-.65c-1.02-.42-1.9-1.008-2.64-1.764s-1.3-1.638-1.72-2.66c-.42-1.008-.62-2.1-.62-3.276zm23.1 4.43h.9c.68 0 1.28-.104 1.82-.335s.98-.525 1.36-.924a4.047 4.249 0 0 0 .84-1.4c.18-.525.28-1.12.28-1.764a4.64 4.872 0 0 0-.3-1.764 4.144 4.144 0 0 0-.84-1.4c-.38-.4-.82-.7-1.36-.924s-1.133-.336-1.8-.336h-.9v8.862zM66.615 7.8h5.8c1.02 0 1.98.21 2.9.65a8.19 8.19 0 0 1 2.36 1.723 8.386 8.386 0 0 1 1.58 2.52c.38.966.58 1.974.58 3.024 0 1.029-.18 2.03-.56 2.982a8.362 8.362 0 0 1-1.58 2.54c-.68.736-1.466 1.303-2.36 1.75s-1.88.652-2.92.652h-5.8V7.806zm24.3 3.486H86.25v2.646h4.4v3.486h-4.4v2.73h4.666v3.486h-8.58V7.806h8.58v3.486zm10.16 3.486h7.78l-.1 2.289a7.34 7.707 0 0 1-.4 1.91 8.027 8.027 0 0 1-1.133 2.185 6.497 6.497 0 0 1-1.68 1.596 7.646 7.646 0 0 1-2.133.98 9.1 9.555 0 0 1-2.44.336c-1.18 0-2.24-.21-3.2-.61a6.868 6.868 0 0 1-2.5-1.721c-.7-.735-1.24-1.61-1.62-2.646s-.58-2.17-.58-3.402.18-2.38.58-3.402c.38-1.008.92-1.89 1.62-2.625s1.533-1.302 2.52-1.701 2.08-.61 3.3-.61c1.58 0 2.96.35 4.133 1.072s2.12 1.82 2.82 3.318l-3.72 1.61c-.333-.861-.8-1.491-1.333-1.87-.56-.377-1.2-.56-1.9-.56-.58 0-1.12.106-1.6.337s-.88.56-1.22.98a4.81 4.81 0 0 0-.8 1.554c-.2.609-.3 1.28-.3 2.016 0 .672.08 1.302.266 1.869.16.56.4 1.07.734 1.49s.733.736 1.24.967 1.066.35 1.72.35a4.48 4.704 0 0 0 1.12-.14 2.853 2.996 0 0 0 .98-.441c.28-.19.52-.462.7-.77s.32-.714.38-1.176h-3.22v-3.192zm14.18.105h.734c.78 0 1.36-.168 1.78-.504s.62-.82.62-1.45-.2-1.12-.62-1.448-1-.504-1.78-.504h-.734zm8.62 8.75h-4.88l-3.733-6.09v6.09h-3.92V7.806h6.1c.84 0 1.58.126 2.2.378.62.28 1.133.63 1.56 1.07.4.442.7.967.92 1.555.2.588.3 1.218.3 1.89 0 1.19-.28 2.184-.82 2.919-.56.756-1.38 1.26-2.467 1.54l4.734 6.489zm9.84-5.88l-1.76-5.271-1.76 5.27zm1.04 3.129h-5.6l-.9 2.75h-4.18l5.734-15.833h4.28l5.733 15.834h-4.18l-.9-2.751zm6.8-13.09h3.92v15.84h-3.92zm7.08 15.834V7.806h3.92l7.24 9.68v-9.68h3.9v15.82h-3.9l-7.24-9.681v9.68h-3.92z" fill="#313131" fill-rule="nonzero"/></svg>