<svg fill-rule="evenodd" stroke-linejoin="round" stroke-miterlimit="2" viewBox="0 0 1600 300" xmlns="http://www.w3.org/2000/svg"><path d="m284.206 268.407c-5.355-6.545-12.02-9.877-19.992-9.877-3.45 0-6.664.595-9.64 1.904-3.094 1.3-5.593 2.975-7.735 5.117-2.142 2.26-3.808 4.88-4.998 7.854-1.3 2.975-1.904 6.307-1.904 9.758 0 3.57.595 6.902 1.904 9.877 1.2 2.975 2.856 5.593 5.117 7.854 2.142 2.26 4.64 3.927 7.616 5.236s6.07 1.904 9.52 1.904c7.497 0 14.16-3.213 20.1-9.52v27.608l-2.38.833c-3.57 1.3-6.902 2.26-9.996 2.856s-6.188.833-9.163.833c-6.188 0-12.138-1.2-17.73-3.57-5.712-2.26-10.7-5.593-14.994-9.877-4.403-4.165-7.854-9.163-10.472-15.113-2.618-5.83-3.927-12.138-3.927-19.04s1.3-13.2 3.927-19.04c2.5-5.712 5.95-10.6 10.353-14.875 4.284-4.165 9.282-7.378 14.994-9.758 5.712-2.26 11.662-3.45 17.97-3.45 3.57 0 7.02.357 10.6 1.07 3.45.833 7.02 2.023 10.83 3.57zm36.414 14.875c0 3.57.714 6.902 2.023 9.877s3.213 5.593 5.474 7.854 4.998 3.927 8.092 5.117c2.975 1.3 6.188 1.904 9.64 1.904s6.664-.595 9.758-1.904c2.975-1.2 5.712-2.856 8.092-5.117 2.26-2.26 4.165-4.88 5.474-7.854s2.023-6.307 2.023-9.877-.714-6.902-2.023-9.877-3.213-5.593-5.474-7.854c-2.38-2.26-5.117-3.927-8.092-5.236-3.094-1.2-6.307-1.785-9.758-1.785s-6.664.595-9.64 1.785c-3.094 1.3-5.83 2.975-8.092 5.236s-4.165 4.88-5.474 7.854-2.023 6.307-2.023 9.877zm-24.395 0c0-6.664 1.2-12.852 3.7-18.683 2.5-5.712 5.83-10.7 10.234-14.994s9.64-7.616 15.708-10.115c6.07-2.38 12.733-3.57 19.992-3.57s13.923 1.2 19.992 3.57c6.07 2.5 11.305 5.83 15.827 10.115 4.403 4.284 7.735 9.282 10.234 14.994 2.5 5.83 3.7 12.02 3.7 18.683s-1.2 12.852-3.7 18.564c-2.5 5.83-5.83 10.83-10.234 15.113-4.522 4.284-9.758 7.616-15.827 9.996-6.07 2.5-12.733 3.7-19.992 3.7s-13.923-1.2-19.992-3.7c-6.07-2.38-11.305-5.712-15.708-9.996s-7.735-9.282-10.234-15.113c-2.5-5.712-3.7-11.9-3.7-18.564zm137.445 25.118h5.355c4.046 0 7.616-.595 10.83-1.904s5.83-2.975 8.092-5.236c2.142-2.26 3.808-4.88 4.998-7.973 1.07-2.975 1.666-6.307 1.666-9.996 0-3.57-.595-6.902-1.785-9.996s-2.856-5.712-4.998-7.973c-2.26-2.26-4.88-3.927-8.092-5.236s-6.783-1.904-10.7-1.904h-5.355v50.218zm-23.324-69.972h34.5c6.07 0 11.78 1.2 17.255 3.7 5.355 2.5 9.996 5.712 14.042 9.758 3.927 4.165 7.14 8.925 9.4 14.28 2.26 5.474 3.45 11.186 3.45 17.136 0 5.83-1.07 11.543-3.332 16.898-2.26 5.474-5.474 10.234-9.4 14.4-4.046 4.165-8.687 7.378-14.042 9.877s-11.186 3.7-17.374 3.7h-34.5v-89.757zm144.584 19.755h-27.727v14.994h26.18v19.754h-26.18v15.47h27.727v19.754h-51.05v-89.735h51.05v19.754zm60.453 19.754h46.3a142.11 142.11 0 0 1 -.595 12.971 44.15 44.15 0 0 1 -2.38 10.83c-1.666 4.64-3.927 8.806-6.783 12.376-2.856 3.7-6.188 6.664-9.996 9.044-3.927 2.5-8.092 4.284-12.733 5.593s-9.4 1.904-14.518 1.904c-7.02 0-13.328-1.2-19.04-3.45-5.83-2.26-10.7-5.474-14.875-9.758-4.165-4.165-7.378-9.163-9.64-14.994s-3.45-12.257-3.45-19.278 1.07-13.447 3.45-19.278c2.26-5.712 5.474-10.7 9.64-14.875s9.163-7.378 14.994-9.64 12.376-3.45 19.635-3.45c9.4 0 17.612 2.023 24.633 6.07s12.614 10.353 16.78 18.802l-22.134 9.163c-2.023-4.88-4.76-8.45-7.973-10.6-3.332-2.142-7.14-3.213-11.305-3.213-3.45 0-6.664.595-9.52 1.904s-5.236 3.213-7.26 5.593c-2.023 2.5-3.7 5.355-4.76 8.806-1.2 3.45-1.785 7.26-1.785 11.424 0 3.808.476 7.378 1.547 10.6.952 3.213 2.38 6.07 4.403 8.45s4.403 4.165 7.378 5.474 6.307 2.023 10.234 2.023c2.26 0 4.522-.238 6.664-.833a16.97 16.97 0 0 0 5.83-2.5c1.666-1.07 3.094-2.618 4.165-4.403s1.904-4.046 2.26-6.664h-19.16v-18.098zm84.37.595h4.403c4.64 0 8.092-.952 10.6-2.856s3.7-4.64 3.7-8.2-1.2-6.307-3.7-8.2-5.95-2.856-10.6-2.856h-4.403v22.134zm51.3 49.623h-29.036l-22.253-34.5v34.5h-23.334v-89.735h36.295c4.998 0 9.4.714 13.1 2.142 3.7 1.547 6.783 3.57 9.282 6.07 2.38 2.5 4.165 5.474 5.474 8.806 1.2 3.332 1.785 6.902 1.785 10.7 0 6.783-1.666 12.376-4.88 16.54-3.332 4.284-8.2 7.14-14.637 8.687l28.203 36.77zm58.546-33.32-10.472-29.87-10.472 29.87h20.945zm6.188 17.73h-33.32l-5.355 15.6h-24.87l34.153-89.726h25.466l34.153 89.726h-24.87l-5.355-15.6zm40.462-74.135h23.324v89.726h-23.333zm42.125 89.725v-89.735h23.324l43.078 54.86v-54.86h23.205v89.726h-23.205l-43.078-54.86v54.86h-23.324z" fill="#fff" fill-rule="nonzero" transform="matrix(2 0 0 2.000006 -428.2 -407.519163)"/></svg>